<svg xmlns="http://www.w3.org/2000/svg" width="64.658" height="65.789" viewBox="0 0 64.658 65.789"><g transform="translate(-74.657 -0.006)"><path d="M111.609,41.346a9.767,9.767,0,0,0-.98,4.131,1.84,1.84,0,0,1-.345.869c-.072.134-.145.275-.217.41a2.065,2.065,0,0,0-.292.548,3.912,3.912,0,0,0-.116.484c-.015.118-.039.223-.05.345-.015.159-.012.312-.031.472-.012.118-.017.226-.025.344-.008.1-.035.213-.052.314-.027.174-.077.36-.114.534-.023.1-.052.194-.072.3-.029.139-.052.261-.089.4a4.658,4.658,0,0,0-.081.98.2.2,0,0,0,.008.093c.039,0,.035-.072.037-.1a4.357,4.357,0,0,1,.107-1.016c.05-.172.072-.354.124-.528.031-.106.056-.223.085-.333.045-.178.078-.358.116-.536.023-.112.027-.269.041-.387s.023-.18.031-.284a3.071,3.071,0,0,1,.074-.509,2.44,2.44,0,0,1,.077-.308,1.253,1.253,0,0,1,.333-.6c.074-.085.265-.325.37-.341.085-.015.07.13.072.188a24.248,24.248,0,0,0,.284,2.919c.329,1.429.544,1.992.623,2.36l.5.589c.567.681.139.9.875,1.206.25.1.5.2.753.3.378.145.519.143.685.4a6.926,6.926,0,0,0,1.824-.41,2.871,2.871,0,0,1,2.762,0c1.007.565,1.254,1.57,2.232,1.57.455,0,.95.373,1.407.269a11.649,11.649,0,0,1,1.833-.3,4.631,4.631,0,0,1,.612.008c2.017.881,4.166.467,6.233.219-1.57.248-3.471.8-5.041.559.248.331.414.931.828,1.177-.743.083-.908-.743-1.239-1.157a.74.74,0,0,0-.478-.252c-.217-.025-.457-.012-.647-.029a1.289,1.289,0,0,0-.532.068c-.078.054.019.242.157.449s.314.436.389.573c.035.35.246.836.3,1.2.039.422-.072.625-.089.509s-.077-.428-.143-.728a4.5,4.5,0,0,0-.174-.647,1.623,1.623,0,0,0-.323-.447c-.151-.13-.5-.5-.589-.575a2.677,2.677,0,0,0-.317-.188c-.161.039-1.388.335-1.458.378-.091.054.031.178.074.23.1.118.234.246.345.358.095.1.2.188.3.288.151.151.306.294.455.449.118.126.256.261.387.374s.279.174.418.277c.093.068.081.128-.019.074s-.238-.128-.341-.192a3.891,3.891,0,0,1-.42-.356c-.157-.143-.3-.275-.466-.411-.122-.1-.221-.19-.35-.285a1.877,1.877,0,0,0-.728-.424c-.143-.039-.244-.068-.391-.1a1.221,1.221,0,0,1-.188-.05c-.041-.015-.058-.008-.064.044a.376.376,0,0,0,.126.3c.174.163.428.217.548.443-.662.083-.91-.579-1.33-.9-.122-.118-.385-.373-.656-.625s-.546-.5-.7-.623a2.03,2.03,0,0,0-1.15-.517,4.563,4.563,0,0,0-1.251.352l-.37.134c.36.093.418.226.745.579.5.546.867.074,1.446.248.176.058.449.329.621.414s.455.509.621.621c.9.962,1.28,1.642,2.6,1.808a2.1,2.1,0,0,1,.689.248,8.985,8.985,0,0,1,1.709,1.57,2.142,2.142,0,0,1-.95-.517c-.2-.137-.577-.647-.792-.718a1.543,1.543,0,0,0-.858-.091.983.983,0,0,1-.515-.151,2.38,2.38,0,0,1-.329-.234c-.045-.031-.163-.11-.2-.031s.141.273.192.335c.085.1.207.215.3.314a2.768,2.768,0,0,0,.31.294c.089.07.176.163.265.242.126.112.246.215.364.335.078.078.141.137.215.223a2.106,2.106,0,0,1,.544.782c.044.126.056.261.1.391a2.266,2.266,0,0,0,.18.453c.07.124-.044-.242.021-.064.012.037.05.157-.019.161s-.145-.2-.167-.248a2.959,2.959,0,0,1-.157-.478,1.41,1.41,0,0,0-.54-.786c-.093-.085-.166-.153-.267-.232-.24-.184-.492-.345-.732-.534-.865-.677-1.6-1.49-2.422-2.207-.155-.137-.314-.269-.482-.391-.221-.163-.017-.106-.273-.217a1.963,1.963,0,0,0-.993-.373,2.1,2.1,0,0,1-.9-.232c-.174-.116-.712-.4-.836-.47-.1-.054-.821-.207-1.08-.337-.039.112.677.478.736.542a4.91,4.91,0,0,0,.447.395c.221.18.443.356.668.532.192.153.383.306.573.467a7.429,7.429,0,0,0,.575.529c.606.828.954,1.8,1.487,2.65a8.448,8.448,0,0,0,1.157.809c.124.078.246.133.37.221.107.077.209.137.314.217a3.44,3.44,0,0,0,.368.232,2.25,2.25,0,0,1,.3.23,3.437,3.437,0,0,1,.414.4c.112.126.232.246.35.368.039.041.207.242.2.288-.006.068-.095-.008-.116-.027-.062-.062-.11-.13-.176-.192-.139-.133-.269-.263-.406-.4a3.344,3.344,0,0,0-.641-.484,4.715,4.715,0,0,1-.426-.211c-.093-.056-.209-.11-.308-.157s-.284-.1-.407-.143a6.363,6.363,0,0,1-1.57-.991,4.1,4.1,0,0,1-.329-.472,8.021,8.021,0,0,0-1.5-2.363c-.18-.153-.364-.3-.546-.447q-.549-.438-1.115-.836c-.195-.134-.391-.267-.594-.387-.118-.062-.242-.114-.356-.188a3.684,3.684,0,0,0-1.012-.594l-.033-.011c-.411-.139-.519-.534-.844-.743-.031-.021-.023.008-.015.033.023.074.056.134.078.217a1.53,1.53,0,0,1,.074.341c-.044-.008-.2-.25-.259-.306-.081-.085-.192-.163-.281-.246a3.207,3.207,0,0,1-.436-.5,5.365,5.365,0,0,1-.314-.513,2.238,2.238,0,0,1-.209-.67c-.015-.124-.039-.242-.054-.368a2.537,2.537,0,0,0-.072-.322,2.7,2.7,0,0,1,.068.348c.011.116.033.223.044.337a2.284,2.284,0,0,0,.248.811c.091.167.167.329.269.492a2.444,2.444,0,0,0,.492.635,1.749,1.749,0,0,1,.381.517c.039.066.074.133.114.2a1.116,1.116,0,0,0,.573.563,1.333,1.333,0,0,1,.666.523,2.438,2.438,0,0,0,.571.629c.509.426,1.088.84,1.579,1.293a3.733,3.733,0,0,1,.5.643,5.88,5.88,0,0,1,.314.588c.095.2.182.4.271.606a8.171,8.171,0,0,0,.809,1.394c.054.068.186.167.256.236s.163.172.246.256a2.76,2.76,0,0,0,.256.256c.143.112.281.234.424.35.091.077.172.155.261.234.116.1.226.19.333.3.039.041.1.1.139.137-.021-.029-.114-.118-.145-.153,0,0-.182-.19-.133-.143.124.118.238.246.362.368.025.025.186.174.106.2-.06.021-.263-.172-.312-.217-.093-.085-.172-.161-.273-.242a3.682,3.682,0,0,1-.288-.234,5.329,5.329,0,0,0-.432-.331c-.072-.05-.161-.11-.23-.161-.091-.068-.2-.176-.288-.256a1.444,1.444,0,0,0-.385-.289,1.116,1.116,0,0,1-.3-.2,10.1,10.1,0,0,1-1.3-1.479c-.116-.194-.228-.395-.341-.589-.462-.78-.974-1.477-1.746-1.477-.716-.054-.588.846-.35,1.746.06.226.126.449.192.66a5.326,5.326,0,0,0,.221.556,2.71,2.71,0,0,1-.563-.728,5.908,5.908,0,0,1-.172-.584,7.269,7.269,0,0,0-.9-2.811,3.636,3.636,0,0,0-.66-.747.3.3,0,0,1-.133-.238c-.015-.139-.1-.093-.124.029a.886.886,0,0,0-.017.167s-.017-.331-.035-.213a1.481,1.481,0,0,0,.035.466c.039.159.087.325.13.484a3.99,3.99,0,0,0,.161.495c.041.1.077.207.116.308.029.072.062.143.089.219s.054.139.081.223a2.2,2.2,0,0,0,.139.348c.008.021.091.188.025.178-.033,0-.112-.18-.13-.215a1.762,1.762,0,0,1-.124-.308c-.05-.157-.139-.329-.2-.484s-.134-.292-.19-.449c-.044-.122-.089-.234-.13-.36-.064-.2-.155-.377-.209-.581-.037-.134-.07-.273-.107-.41a.823.823,0,0,0-.252-.4c-.064-.072,0-.029-.035-.085a3.451,3.451,0,0,0-.7-.706,2.439,2.439,0,0,1-.284-.261,4.157,4.157,0,0,1-.445-.521,4.721,4.721,0,0,1-.255-.432c-.066-.12.089.217.089.217a4.884,4.884,0,0,0,.37.647c.091.133.176.265.269.4a.81.81,0,0,1,.128.234,9.621,9.621,0,0,0,.588,1.676c.083.184.167.364.256.544a6.533,6.533,0,0,1,.428,1.214c.056.211.1.422.151.635.314,1.161-.348,2.811,1.8,3.391.294.078.414.186.331.331a3.814,3.814,0,0,1-.654.008,2.9,2.9,0,0,1-.662-.13,1.946,1.946,0,0,1-.594-.285,1.152,1.152,0,0,1-.4-.5c-.058-.137-.068-.25-.244-.153a3.722,3.722,0,0,0-.656.637,2.151,2.151,0,0,0-.281.716c-.023.157-.027.314-.052.467,0,.031-.023.147-.072.13s-.015-.153-.012-.188a2.65,2.65,0,0,1,.112-.782,1.81,1.81,0,0,1,.314-.631,3.386,3.386,0,0,0,.317-.463.994.994,0,0,0,.18-.625,11.778,11.778,0,0,0-.195-1.231,7.109,7.109,0,0,0-.993-2.692,4.3,4.3,0,0,0-.4-.556,7.185,7.185,0,0,1-.039.91,1.424,1.424,0,0,1-.292.908,2.145,2.145,0,0,0-.366-.984,1.224,1.224,0,0,1-.188-.356,1.007,1.007,0,0,1,.006-.548,1.51,1.51,0,0,0-.095-1.082c-.048-.107-.12-.219-.176-.329a3.05,3.05,0,0,1-.143-.314c-.1-.265-.149-.538-.236-.807-.039-.122-.066-.234-.112-.358s-.083-.252-.128-.378c-.058-.159-.087-.345-.134-.511.058.188.085.362.155.552.048.13.089.263.137.393.041.114.072.238.112.354.06.178.1.368.159.55a2.813,2.813,0,0,0,.118.31c.029.062-.037-.087-.037-.089a5.755,5.755,0,0,1-.2-.66c-.031-.116-.072-.23-.107-.345s-.078-.23-.116-.341c-.045-.134-.091-.252-.126-.389s-.064-.252-.1-.383a4.4,4.4,0,0,1-.091-.98c-.006-.259-.012-.519-.012-.778,0-.209.045-.434.058-.645.012-.192.045-.383.05-.575a.212.212,0,0,0,0-.064c-.031.006-.023.019-.027.056-.017.143-.023.279-.044.422s-.019.265-.039.4a3.15,3.15,0,0,0-.037.5c0,.43-.006.9.027,1.326a2.2,2.2,0,0,0,.081.434c.05.182.074.344.139.525.045.13.087.265.13.4.035.11.062.223.1.335.058.18.091.378.147.565a3.242,3.242,0,0,0,.24.606,1.773,1.773,0,0,1,.172.395,1.279,1.279,0,0,1-.052.894,2.012,2.012,0,0,0-.107.478c-.035.242-.095.255-.211.455a2.881,2.881,0,0,0-.312.815,4.418,4.418,0,0,0-.087.534.725.725,0,0,0,.147.581A6.467,6.467,0,0,0,108,61.3a2.147,2.147,0,0,1,.325.559c.035.1.072.188.106.288.066.194.155.387.228.581a2.463,2.463,0,0,0,.133.279c.045.089.085.149.126.246a1.056,1.056,0,0,1,.081.221c-.012.06-.068-.021-.081-.041-.062-.112-.1-.221-.172-.335-.045-.072-.095-.17-.137-.246s-.072-.166-.107-.242c-.077-.166-.145-.329-.213-.5a1.59,1.59,0,0,0-.612-.809c-.064-.044-.426-.306-.459-.133-.011.054,0,.306-.006.381a8.361,8.361,0,0,1-.174,1.8c-.05.211-.118.809-.186,1.012-.209.428-.331.724-.579.765a8.685,8.685,0,0,0,.314-1.583,7.124,7.124,0,0,0,.058-.757,14.186,14.186,0,0,0-.155-2.215,2.961,2.961,0,0,0-.033-.314c-.021-.1-.035-.166-.048-.265-.045-.327-.093-.654-.134-.98-.011-.234-.012-.467,0-.7a5.785,5.785,0,0,1,.078-.7,7.506,7.506,0,0,0-.556.521c-.176.182-.341.37-.5.567-.157.226-.323.447-.49.664-.147.19-.195.219-.188.472a2.634,2.634,0,0,0,.107.563,3.066,3.066,0,0,0,.323.813,1.348,1.348,0,0,1,.149.422,7.176,7.176,0,0,1,.052,1.012c0,.1-.015.23-.023.331-.012.128-.031.246-.039.378a1.811,1.811,0,0,0,.033.569,4.049,4.049,0,0,1,.143.478c.006.056-.027.068-.048,0a2.685,2.685,0,0,0-.1-.292,1.575,1.575,0,0,1-.107-.618c0-.259.041-.5.052-.757.006-.141-.008-.35-.017-.495a2.292,2.292,0,0,0-.141-.8,1.4,1.4,0,0,0-.122-.209,6.377,6.377,0,0,1-.391-.707c-.041-.081-.234-.426-.352-.352a5.4,5.4,0,0,0-.463.552.522.522,0,0,0-.139.432,4.054,4.054,0,0,0,.077.608c.031.143.072.271.1.414.019.1.044.207.062.312s.064.2.083.329c.021.141.045.265.056.407.011.116.031.223.039.341.021.3.021.629.017.927,0,.023.006.137-.039.114s-.041-.294-.041-.352a5.683,5.683,0,0,0-.072-.917c-.023-.116-.031-.221-.058-.339a1.973,1.973,0,0,0-.1-.36c-.037-.091-.062-.184-.093-.277a2.852,2.852,0,0,0-.122-.329c-.035-.077-.172-.416-.263-.414-.066,0-.151.234-.176.294a5.9,5.9,0,0,0-.2,3.879c-.373-.041-.439-.426-.538-.683a8.842,8.842,0,0,1-.166-.95,4.474,4.474,0,0,1,.265-3.037,5.252,5.252,0,0,1,.318-.739,5.572,5.572,0,0,1,.432-.7c.13-.238.261-.474.385-.712s.246-.476.356-.714c.081-.2.155-.395.221-.6a8.829,8.829,0,0,1,.273-.9,1.04,1.04,0,0,0,.186-.563c0-.172-.015-.331,0-.507a3.236,3.236,0,0,1,.11-.755c.07-.238.116-.462.2-.7a3.749,3.749,0,0,0,.122-.625,2.473,2.473,0,0,0,.054-.44,2.448,2.448,0,0,1,.153-.629,1.953,1.953,0,0,1,.221-.366,1.494,1.494,0,0,0,.226-.517c.015-.077.029-.161.041-.238a7.71,7.71,0,0,0,.056-1.094,2.874,2.874,0,0,1,.226-.842,2.985,2.985,0,0,0,.1-.635,11.244,11.244,0,0,0,.048-1.318c0-.072-.021-.06-.025,0-.012.209-.008.443-.012.654a5.318,5.318,0,0,1-.05.7,2.209,2.209,0,0,1-.11.627,3.261,3.261,0,0,0-.211.724c-.017.149-.012.339-.017.5a4.322,4.322,0,0,1-.072.763,1.313,1.313,0,0,1-.13.44,1.19,1.19,0,0,1-.155.256,1.647,1.647,0,0,0-.294.6,2.183,2.183,0,0,0-.083.44,2.438,2.438,0,0,1-.074.424,3.49,3.49,0,0,1-.1.484c-.029.077-.062.149-.091.226-.07.188-.126.373-.2.561a3.926,3.926,0,0,0-.155.581c-.021.1-.05.2-.07.3a1.659,1.659,0,0,1-.184.618,1.3,1.3,0,0,0-.1.184,1.934,1.934,0,0,1-.143.238c-.192.288-.373.544-.565.782-.145.134-.288.269-.426.41s-.271.284-.4.43a3.767,3.767,0,0,0-.519.573c-.153.2-.289.42-.422.639a6.339,6.339,0,0,1-.925,1.473,3.9,3.9,0,0,1,.269-1.138,3.739,3.739,0,0,0,.331-1.446c-.226-.085-.383.41-.592.436-.279.072-.569.528-.792.66a13.244,13.244,0,0,0-1.283.867c-1.128,1.2-.991,2.108-2.232,3.264a7.612,7.612,0,0,1,2.265-4.079c.228-.161.457-.318.678-.472s.436-.306.635-.455a3.284,3.284,0,0,0,.513-.521,3.516,3.516,0,0,0,.467-.567,1.346,1.346,0,0,1,.664-.521c.482-.166.635-.78.943-1.154.056-.068.1-.107.161-.17.166-.174.143-.395.234-.614a3.155,3.155,0,0,1,.373-.521,1.17,1.17,0,0,0,.277-.453c.031-.1.072-.2.1-.3.041-.134-.039-.143-.1-.033a3.116,3.116,0,0,1-.242.484c-.064.072-.139.145-.2.219-.161.18-.354.318-.5.509a3.424,3.424,0,0,1-.325.42,4.836,4.836,0,0,0-.395.434.989.989,0,0,1-.459.35l-.033.011a3.65,3.65,0,0,0-1.012.594c-.114.074-.238.126-.36.192-.2.118-.4.248-.589.383s-.358.265-.534.4c-.219.151-.434.306-.645.467-.993.759-1.93,1.585-2.867,2.412-.126.112-.25.255-.373.377-.145.147-.292.292-.439.436A2.523,2.523,0,0,0,94.2,62a2.679,2.679,0,0,0-.155.341,5.1,5.1,0,0,0-.213.623c-.008.031-.072.273-.139.2-.031-.035.045-.3.058-.352a4.989,4.989,0,0,1,.18-.567,1.814,1.814,0,0,1,.176-.395c.056-.087.139-.188.2-.271.078-.1.2-.211.285-.308a4.55,4.55,0,0,0,.428-.515A11.969,11.969,0,0,1,96.591,58.9a6.208,6.208,0,0,1,.645-.519,5.456,5.456,0,0,1,.594-.366,1.987,1.987,0,0,0,.321-.556.322.322,0,0,0-.029-.3c-.133-.172-.325.083-.447.161a2.921,2.921,0,0,1-.712.308,11.191,11.191,0,0,0-3.2,2.778c-.068.095-.137.226-.2.327-.041.068-.074.137-.116.207-.1.17-.211.329-.3.5-.062.114-.112.207-.167.327s-.126.248-.186.373a2.534,2.534,0,0,0-.126.261,3.544,3.544,0,0,0-.2.637c-.015.081-.029.157-.044.236-.011.05.021-.064.021-.064.019-.081.031-.166.052-.246-.017.074-.054.364-.12.395-.083.039-.037-.19-.033-.223a2.2,2.2,0,0,1,.085-.426,3.94,3.94,0,0,1,.2-.589c.045-.1.085-.213.13-.314.06-.137.1-.269.166-.406.045-.1.077-.182.133-.284a3.85,3.85,0,0,0,.221-.447c.052-.13.095-.232.139-.364a2.05,2.05,0,0,0,.116-.65,6.9,6.9,0,0,0-2.06.424,3.153,3.153,0,0,0-.767.532c-.118.1-.219.195-.344.292-.095.072-.184.141-.277.217a2.59,2.59,0,0,0-.674.724c-.083.143-.1.329-.17.436-.041.064-.107.07-.078-.035s.056-.223.089-.325a1.918,1.918,0,0,1,.362-.581c.128-.143.281-.3.42-.428.064-.062.13-.118.194-.18.134-.13.265-.284.395-.422a6.084,6.084,0,0,1,.573-.536,2.664,2.664,0,0,1,1.088-.6c.031-.006.06-.011.091-.015,1.57-.083,2.4-1.239,3.645-1.916a4.163,4.163,0,0,1,.519-.211,2.139,2.139,0,0,0,1.347-.693c.35-.378.795-.3,1.173-.422l-1.119-.395a4.563,4.563,0,0,0-1.251-.352,2.024,2.024,0,0,0-1.15.517c-.3.234-1.107,1.012-1.353,1.245s-.389.424-.651.66a1.221,1.221,0,0,1-.66.256,2.182,2.182,0,0,0,.467-.453c.18-.213.314-.414.18-.373a1.56,1.56,0,0,1-.854-.176c-.118-.041-.517-.145-.883-.236-.8-.48-1.322.244-1.829.769a3.8,3.8,0,0,0-.422.528c-.072.107-.139.194-.2.306a3.782,3.782,0,0,1-.387.529c-.06.068-.1.118-.167.184-.155.153-.294.306-.457.453a3.152,3.152,0,0,0-.418.447c-.027.044-.166.356-.219.292-.023-.027.039-.122.054-.151a1.087,1.087,0,0,1,.252-.387c.1-.11.188-.2.3-.3.149-.141.292-.312.432-.463a3.106,3.106,0,0,0,.381-.542c.11-.2.2-.416.306-.625a2.142,2.142,0,0,1,.4-.647c.1-.107.242-.221.329-.327.045-.054.083-.112.015-.163a1.789,1.789,0,0,0-2.708,1.012,1.165,1.165,0,0,1-.238.374,2.93,2.93,0,0,1-.273.3c-.124.122-.226.252-.356.374-.145.139-.279.279-.43.411a2.125,2.125,0,0,0-.47.546c-.015.025-.186.341-.232.255-.019-.037.087-.2.107-.238a2.423,2.423,0,0,1,.352-.5c.114-.126.255-.244.37-.374s.223-.246.329-.389c.072-.1.143-.2.219-.3a1.8,1.8,0,0,0,.265-.495,1.678,1.678,0,0,1,.265-.466.943.943,0,0,0,.194-.472,7.444,7.444,0,0,1-4.009.289c.248,0,.5.166.828.083,2.48-.414,4.876-1.653,7.36-.95.226.05.44.1.643.143a5.257,5.257,0,0,0,.991.157c.979,0,1.409-1.268,2.416-1.833a2.852,2.852,0,0,1,2.725-.192,5.35,5.35,0,0,0,1.514.217c.163-.24.3-.242.677-.383.25-.095.5-.192.753-.3a2.589,2.589,0,0,0,1.369-1.065c.2-.941.374-.511.4-1.616L103.37,50a25.071,25.071,0,0,0,.331-4.383c0-.114-.012-.277.149-.161a2.613,2.613,0,0,1,.563.577,1.977,1.977,0,0,1,.265.352,1.461,1.461,0,0,1,.167.463c.029.149.072.279.1.43.019.11.05.217.077.325.021.078.052.155.074.238a1.939,1.939,0,0,0,.145.387c.045.033.033-.052.027-.07-.027-.116-.074-.234-.1-.354-.023-.089-.052-.166-.072-.256-.023-.107-.045-.182-.062-.3-.021-.153-.064-.3-.089-.455a1.671,1.671,0,0,0-.344-.772c-.091-.118-.174-.263-.265-.389a4.169,4.169,0,0,1-.294-.436,4.909,4.909,0,0,1-.356-.706,1.342,1.342,0,0,1-.087-.329,8.544,8.544,0,0,0-.683-2.534c-.1-.223.242-.139.339-.1a3.148,3.148,0,0,1,.41.226,3.968,3.968,0,0,1,.474.31c.035.027.195.157.23.091.027-.05-.128-.17-.166-.2-.219-.192-.462-.341-.687-.529a3.787,3.787,0,0,0-.536-.339.968.968,0,0,1-.424-.321,2.626,2.626,0,0,1-.281-.556,6.373,6.373,0,0,0-3.022-3.461,9.275,9.275,0,0,0-3.993-.807,8.441,8.441,0,0,0-2.5.226c-3.668,1.353-5.73,3.835-10.6,2.931-.252,0-.019-.226.234-.226,5.138,1.128,8.076-2.931,12.307-3.608a33.654,33.654,0,0,0-4.4-1.353,10.951,10.951,0,0,1-6.576-.226l-.019-.226a7.987,7.987,0,0,0,6.053,0,8.846,8.846,0,0,1-3.86-4.534c-.2-.577.083-.345.275.019a12.527,12.527,0,0,0,.755,1.363c2.681,3.982,7.985,4.344,12.467,4.723l.078.008c-1.047-1.438-2.139-2.807-3.041-4.319-.149-.252-.06-.18-.374-.234a8.256,8.256,0,0,1-3.161-1.239,4.125,4.125,0,0,0-1.587-.453c-.281-.033-.594.015-.9,0a4.5,4.5,0,0,1-1.1-.166,3.244,3.244,0,0,1-1.368-1.1c-.161-.226.463.366.467.368a3.045,3.045,0,0,0,1.938.623c.345.035,1.08.072,1.03-.387-.029-.267-.478-.569-.7-.813a10.425,10.425,0,0,1-1.655-2.658c.335,0,.219-.054.395.261a11.383,11.383,0,0,0,2.145,2.89,5.552,5.552,0,0,0,1.117.935A7.367,7.367,0,0,0,96,29.835c-.178-.507-.406-1.018-.59-1.535-.322-.908-.554-1.744-.8-2.662-.145-.54-.447-.6-.885-.956-.391-.325-.726-.706-1.094-1.007a3.907,3.907,0,0,0-.958-.519c-.378-.174.356-.011.422.011a10.017,10.017,0,0,1,2.085,1.415c.292.095.1-.656.077-.809a19.113,19.113,0,0,1-.406-3.055c0-.174-.023-.337.2-.252a8.932,8.932,0,0,1,.273,1.165c.107.823.3,1.58.439,2.391a2.054,2.054,0,0,0,.443,1.142c.306.294.579-.329.674-.5.261-1.045.41-.292.761-1.3-.041-.389.219-.918.133-.211,0,.939-.406.472-.571,1.92-.3.7-.858.629-.5,1.68a9.8,9.8,0,0,0,.629,1.649,8.112,8.112,0,0,0,.74,1.012c.525,1.181.577-.453.951-.979a4.123,4.123,0,0,1,1.132-1.2c.327-.2.509-.045.364-.006s-.277.289-.364.4a3.716,3.716,0,0,0-.765,1.45,3.337,3.337,0,0,0,.06,2.555,7.6,7.6,0,0,0,.89,1.121c.383.495.786.958,1.171,1.458.141.182.5.732.765.681.143-.027.255-.195.325-.294a3.691,3.691,0,0,0,.314-1.88,10.732,10.732,0,0,1,.139-1.682c.1-.563.089-1.113.192-1.692a2.514,2.514,0,0,0,0-1.394,4.857,4.857,0,0,0-.71-.724c-.561-.569-1.032-1.113-1.556-1.7-.618-.7-1.057-.74-1.682-1.276a2.813,2.813,0,0,1-.91-2.046c-.011-.54.192-.039.226.161.116.656.023.945.6,1.514.552.546,1.227.712,1.831,1.313a8.736,8.736,0,0,0,1.924,1.74c.147.068.318.356.436.337.151-.025.234-.395.3-.625a6.153,6.153,0,0,0,.122-2.367,1.24,1.24,0,0,1,.039-.933c-.023.015.027-.134.006-.118a20.556,20.556,0,0,1-2.1-3.6c-2.439-.335-5.058-.972-6.086-3.492.163-.066.285.064.529.36.668,1.458,2.253,2.087,3.889,2.441.517.112,1.039.2,1.539.271a8,8,0,0,1-.585-4.735c.041-.217.145-.3.318-.281a9.159,9.159,0,0,0,.6,4.538,17.6,17.6,0,0,0,2.064,3.825,6.116,6.116,0,0,1,.418-1.945,25.687,25.687,0,0,1-.118,2.857,7.336,7.336,0,0,0,.074,1.409,30.606,30.606,0,0,1-.472,3.118c-.056.66-.118,1.235-.217,1.891-.078.532.223.588.683.345.9-.478.921-1.8,1.9-2.435a4.588,4.588,0,0,1,.573-.263l.021.246-.143.054c-.842.366-.993,1.26-1.409,1.963a5.674,5.674,0,0,1-1.268,1.369c-.627.6-.459,1.15-.432,1.926a12.793,12.793,0,0,1-.184,2.7,1.056,1.056,0,0,0,.354,1.113,15.917,15.917,0,0,1,1.992,2.733,1.64,1.64,0,0,1,.145.391c.023.081.072.166.1.252a4.07,4.07,0,0,1,.1.844c0,.085-.023.228-.029.323s-.011.145-.027.24c-.025.13-.031.252-.06.378a5.242,5.242,0,0,0-.068,1.094c0,.041-.006.219.025.24.068.045.066-.292.066-.323a4.156,4.156,0,0,1,.1-1.01c.033-.112.041-.226.072-.345a1.829,1.829,0,0,0,.05-.221c.015-.112.039-.195.062-.3.019-.087.023-.267.031-.364.015-.209.029-.424.048-.631a1.4,1.4,0,0,1,.219-.561c.116-.223.223-.447.325-.677a16.293,16.293,0,0,0,1.191-3.426c-1.494-.6-2.056-2.021-2.563-3.384.078-.536-.012-.645.374-.246a5.052,5.052,0,0,0,2.311,2.952,15.5,15.5,0,0,0-.161-5.124,12.449,12.449,0,0,0-.358-1.283,10.1,10.1,0,0,1-.221-7.083c-.246-.966-1.649-2.834-2.027-4.021a11.32,11.32,0,0,1-.773-4.884c.2-.414.294.112.289.5a8.441,8.441,0,0,0,.846,4.113c.033.091.068.18.1.269,1.924-.085,4.9-.8,5.716-3.041.331-.348.215-.3.244.1-.98,2.406-3.509,2.977-5.85,3.33a19.151,19.151,0,0,0,1.717,2.881,5.325,5.325,0,0,1,.424-.954c.211-.244.517-.23.331.145-1.431,2.625-1.339,4.321-.364,7.1.091.261.24.358.509.178a3.2,3.2,0,0,0,.9-2.689,6.073,6.073,0,0,1-.029-1.857c.015-.095.089-.732.267-.693.1.023.008.523,0,.6a5.8,5.8,0,0,0,.027,1.764,4.521,4.521,0,0,1,.025,1.3c0,.037-.008.074-.012.114a8.439,8.439,0,0,1-.751,2.162c-.393.8-.226,1.026.064,1.8.027.077.056.153.085.23,1.018,5.631-.858,7.325-1.283,12.7a8.168,8.168,0,0,1,.41,1.309c.05.215.087.436.134.654.025.116.058.213.077.333.035.207.05.459.064.67q.019.245.031.49c.006.1,0,.244-.008.35a2.36,2.36,0,0,1-.186.687c-.05.128-.118.256-.167.387-.064.166-.122.3-.176.476a2.226,2.226,0,0,0-.077.271,3.178,3.178,0,0,0-.064.35,1.823,1.823,0,0,0-.035.563c.019.126.027.238.054.364,0,.017.037.2.037.2.021.039.037-.023.037-.054,0-.093-.041-.213-.05-.314a1.763,1.763,0,0,1-.015-.523c.015-.095.031-.188.045-.285a3.919,3.919,0,0,1,.306-.966c.081-.184.172-.356.246-.544a2.09,2.09,0,0,0,.188-.654c.011-.122.029-.228.031-.352.008-.364.031-.736.027-1.1,0-.209-.035-.393-.027-.606a1.756,1.756,0,0,1,.1-.5,16.145,16.145,0,0,1,3.558-6.82,1.053,1.053,0,0,0,.354-1.113,12.884,12.884,0,0,1-.184-2.7c.027-.778.195-1.33-.432-1.926a8.332,8.332,0,0,1-1.268-1.369c-.381-.519-.318-.571.48.107a2.716,2.716,0,0,0,.467.327c.457.242.761.188.683-.345-.1-.656-.161-1.229-.217-1.891-.093-1.04-.484-2.077-.472-3.118a7.193,7.193,0,0,0,.072-1.409,25.235,25.235,0,0,1-.116-2.857,6.887,6.887,0,0,1,.439,2.1,14.313,14.313,0,0,0,2.847-6.922,10.47,10.47,0,0,0,.17-1.161c.083-.184.182-.306.259-.045a13.759,13.759,0,0,1-3,8.651l-.118.215c.13.6.161.18.037.838a6.186,6.186,0,0,0,.122,2.367c.064.23.149.6.3.625.118.019.288-.269.436-.337a8.693,8.693,0,0,0,1.924-1.74c.6-.6,1.276-.765,1.831-1.313.575-.567.48-.858.6-1.514.035-.2.236-.7.226-.161a2.816,2.816,0,0,1-.91,2.046c-.625.536-1.063.579-1.682,1.276-.523.589-1,1.134-1.556,1.7a5.217,5.217,0,0,0-.71.724,2.514,2.514,0,0,0,0,1.394c.1.579.093,1.128.192,1.692a10.915,10.915,0,0,1,.139,1.682,3.7,3.7,0,0,0,.314,1.88c.07.1.182.267.325.294.269.052.625-.5.765-.681.385-.5.788-.964,1.171-1.458a7.628,7.628,0,0,0,.89-1.121,3.341,3.341,0,0,0,.06-2.555,3.735,3.735,0,0,0-.765-1.45c-.087-.112-.23-.362-.364-.4s.037-.195.364.006a4.076,4.076,0,0,1,1.132,1.2c.374.525.426,2.16.951.979a8.1,8.1,0,0,0,.74-1.012,10.019,10.019,0,0,0,.629-1.649c.36-1.051-.2-.984-.5-1.68a3.311,3.311,0,0,1-.436-1.731,1.084,1.084,0,0,0,.3.12,2.983,2.983,0,0,0,.463,1.2c.095.172.368.795.674.5a2.072,2.072,0,0,0,.443-1.142c.134-.811.333-1.568.439-2.391a9.789,9.789,0,0,1,.149-1.216c.226-.085.2.081.2.252a19.227,19.227,0,0,1-.284,3.107c-.025.155-.217.9.077.809a9.96,9.96,0,0,1,2.085-1.415c.066-.021.8-.184.422-.011a3.906,3.906,0,0,0-.958.519c-.368.3-.706.683-1.094,1.007-.436.358-.739.416-.885.956-.248.918-.482,1.752-.8,2.662-.184.517-.414,1.028-.59,1.535a7.352,7.352,0,0,0,3.322-1.092,5.6,5.6,0,0,0,1.117-.935,11.36,11.36,0,0,0,2.145-2.89c.176-.314.06-.265.395-.261a10.49,10.49,0,0,1-1.657,2.658c-.217.242-.668.546-.7.813-.05.459.685.422,1.03.387a3.045,3.045,0,0,0,1.938-.623s.47-.314.306-.089a2.218,2.218,0,0,1-1.21.817,4.1,4.1,0,0,1-1.1.166c-.308.015-.621-.031-.9,0a4.152,4.152,0,0,0-1.587.453,8.312,8.312,0,0,1-3.161,1.239c-.314.056-.226-.019-.374.234-.9,1.512-2,2.881-3.041,4.319l.078-.008c4.483-.378,9.787-.74,12.467-4.723a12.49,12.49,0,0,0,.755-1.363c.192-.366.472-.6.273-.019a8.844,8.844,0,0,1-3.858,4.534,7.987,7.987,0,0,0,6.053,0l-.019.226a10.955,10.955,0,0,1-6.576.226,33.812,33.812,0,0,0-4.4,1.353c4.231.677,7.168,4.737,12.307,3.608.252,0,.486.226.234.226-4.867.9-6.928-1.579-10.6-2.931a8.444,8.444,0,0,0-2.5-.226c-5.689.058-6.533,3.25-7.518,5.414Zm21.112-20.314a2.714,2.714,0,0,0,1.845-3.891A2.67,2.67,0,0,0,132.721,21.032ZM100.909,42.271a2.519,2.519,0,0,1-.292-4.02A2.734,2.734,0,0,1,100.909,42.271Zm12.147.658a2.643,2.643,0,0,0,.584-4.189A2.869,2.869,0,0,0,113.056,42.929ZM83.734,20.375c-1.709-.643-2.168-2.3-1.084-3.463C84.181,17.7,84.819,19.21,83.734,20.375ZM87.76,30.623a1.889,1.889,0,0,1-.8-2.966A1.98,1.98,0,0,1,87.76,30.623Zm9.377,3.769A2.1,2.1,0,0,1,95.71,31.3,2.2,2.2,0,0,1,97.137,34.392Zm-3.088-5.426a2.1,2.1,0,0,1-.141-3.4C94.965,26.568,95.158,28.083,94.049,28.966Zm10.209,8.546a1.914,1.914,0,0,0-1.183-2.881A2.008,2.008,0,0,0,104.258,37.512Zm1.012,1.243a2.1,2.1,0,0,0,.544-3.366A2.2,2.2,0,0,0,105.269,38.755Zm3.651-.134a2.1,2.1,0,0,0,.544-3.366A2.2,2.2,0,0,0,108.92,38.62Zm-20.2-3.374a2.093,2.093,0,0,1,3.4.244A2.195,2.195,0,0,1,88.716,35.246ZM93.46,33.79a2.1,2.1,0,0,1,1.6-3.008A2.2,2.2,0,0,1,93.46,33.79Zm6.589-1.173a2.186,2.186,0,0,1,1.417-3.148C102.251,30.728,101.308,32.145,100.048,32.617Zm4.636,2.3a2.093,2.093,0,0,0-1.558-3.031C102.7,33.283,103.283,34.694,104.684,34.915Zm6.872,1a2.094,2.094,0,0,0-2.348-2.47C109.2,34.905,110.15,36.1,111.556,35.914Zm5.788-8.2a2.131,2.131,0,0,0-2.662-2.131A2.314,2.314,0,0,0,117.344,27.714Zm8.051,1.9a1.892,1.892,0,0,0,2.567-1.7A1.983,1.983,0,0,0,125.4,29.615Zm-3.252,5.664a1.981,1.981,0,0,0,3.033-.61A2.113,2.113,0,0,0,122.143,35.279ZM124.971,10.6a2.1,2.1,0,0,0-.1,3.407A2.2,2.2,0,0,0,124.971,10.6ZM114.379,32.917a2.354,2.354,0,0,0-1.524-3.391C112.009,30.884,113.025,32.408,114.379,32.917Zm3.372-1.552a1.979,1.979,0,0,0,1.5,2.706A2.112,2.112,0,0,0,117.751,31.366ZM96.8,39.738c1.276.966.972,3.055-.352,4.026A2.758,2.758,0,0,1,96.8,39.738ZM93.242,39.7a2.316,2.316,0,0,1,.383,3.6A2.47,2.47,0,0,1,93.242,39.7Zm1.676,1.415a3.073,3.073,0,0,1,1.121-4.787A3.335,3.335,0,0,1,94.918,41.117Zm-2.991-.592c.795,1.524-.459,3.411-2.19,3.744A2.96,2.96,0,0,1,91.927,40.525Zm7.408-.352a2.517,2.517,0,0,1-2-3.494A2.731,2.731,0,0,1,99.335,40.173Zm-5.643-3.879c.828,1.506-.381,3.421-2.1,3.8A2.964,2.964,0,0,1,93.692,36.295Zm-3.448,1.553A2.857,2.857,0,0,1,88.382,42,2.857,2.857,0,0,1,90.243,37.848ZM79.507,40.219a2.72,2.72,0,0,1-2.931,2.954A2.666,2.666,0,0,1,79.507,40.219Zm7.811-.745a2.72,2.72,0,0,1-2.931,2.954A2.666,2.666,0,0,1,87.318,39.474Zm-3.291.271a2.739,2.739,0,0,1-3.876,2.04A2.837,2.837,0,0,1,84.027,39.745Zm-2.257-.937c-.809,1.3-2.588,1.111-3.558-.184A2.2,2.2,0,0,1,81.77,38.808ZM135.7,35.519c-.569,1.609.927,3.291,2.675,3.378A2.94,2.94,0,0,0,135.7,35.519Zm-58.956-1.93c-.5,1.63,1.059,3.252,2.807,3.269A2.942,2.942,0,0,0,76.741,33.589ZM120.975,39.7a2.316,2.316,0,0,0-.383,3.6A2.47,2.47,0,0,0,120.975,39.7ZM119.3,41.119a3.072,3.072,0,0,0-1.119-4.787A3.336,3.336,0,0,0,119.3,41.119ZM75.8,24.411c-.792,1.524.459,3.411,2.19,3.744A2.96,2.96,0,0,0,75.8,24.411ZM104.225,9.5a2.24,2.24,0,0,1,1.214-3.364C106.025,7.547,105.6,9.1,104.225,9.5ZM102.2,5.9a2.24,2.24,0,0,1,1.212-3.364C104,3.952,103.579,5.5,102.2,5.9ZM99.345,3.762A2.239,2.239,0,0,1,99.318.187C100.356,1.311,100.5,2.91,99.345,3.762Zm1,9.7a2.24,2.24,0,0,1,1.214-3.364C102.139,11.515,101.72,13.064,100.34,13.466Zm14.58,27.162a2.642,2.642,0,0,0,1.967-3.744A2.869,2.869,0,0,0,114.92,40.628ZM100.573,9a2.094,2.094,0,0,0-2.348-2.47C98.213,8,99.167,9.186,100.573,9Zm10.827,24.3a2.094,2.094,0,0,0-2.348-2.47C109.04,32.3,109.994,33.487,111.4,33.305Zm-4.193-1.641a2.1,2.1,0,0,0-2.348-2.47C104.848,30.655,105.8,31.847,107.208,31.665Zm-4.083-3.515a1.869,1.869,0,0,1,2.637-1.51A1.96,1.96,0,0,1,103.124,28.15Zm2.621-2.05a2.1,2.1,0,0,0-1.771-2.913A2.2,2.2,0,0,0,105.745,26.1Zm-2.038-3.354a2.1,2.1,0,0,0,2.17-2.629A2.2,2.2,0,0,0,103.707,22.746ZM87.287,16.594a2.9,2.9,0,0,1-4.6-.757C84.332,14.728,86.416,14.894,87.287,16.594Zm18.186,3.016a2.1,2.1,0,0,1-3.362-.565A2.2,2.2,0,0,1,105.472,19.61Zm-2-7.114a2.1,2.1,0,0,1-.832-3.457C104.008,9.875,104.521,11.387,103.474,12.5ZM96.532,7.045A2.389,2.389,0,0,0,98.369,3.7,2.51,2.51,0,0,0,96.532,7.045Zm-2.478,8.306A2.39,2.39,0,0,0,95.89,12.01,2.51,2.51,0,0,0,94.054,15.351Zm3.084,2.156a1.958,1.958,0,0,1,3,.9A2.125,2.125,0,0,1,97.138,17.507Zm-1.823,5.976A2.272,2.272,0,0,1,97,20.262,2.467,2.467,0,0,1,95.315,23.483ZM99.761,16.3a2.1,2.1,0,0,0-2.716-2.058A2.2,2.2,0,0,0,99.761,16.3ZM95.878,6.22c-1.812-.184-2.785-1.618-2.156-2.97C95.415,3.614,96.507,4.867,95.878,6.22Zm3.471,7.687c-1.812-.184-2.785-1.618-2.156-2.97C98.886,11.3,99.978,12.554,99.349,13.907ZM99.5,5.972a2.1,2.1,0,0,1,1.771-2.913A2.2,2.2,0,0,1,99.5,5.972Zm1.117,10.414a2.1,2.1,0,0,1,1.771-2.913A2.2,2.2,0,0,1,100.62,16.385Zm.534,2.429a2.094,2.094,0,0,1,1.771-2.911A2.194,2.194,0,0,1,101.153,18.814Zm-4.491-.939a1.8,1.8,0,0,1-.078-3.035A1.885,1.885,0,0,1,96.662,17.875Zm1.123,4.593a2.1,2.1,0,0,1,1.771-2.913A2.2,2.2,0,0,1,97.786,22.468Zm4.282,2.77a2.836,2.836,0,0,0-2.474-3.678A2.843,2.843,0,0,0,102.068,25.238Zm-9.479-4.667A2.094,2.094,0,0,1,94.36,17.66,2.194,2.194,0,0,1,92.589,20.571Zm1.735.654a2.272,2.272,0,0,1,1.982-2.946A2.275,2.275,0,0,1,94.324,21.224Zm1.434-10.639A2.686,2.686,0,0,1,94.951,6.6,2.625,2.625,0,0,1,95.758,10.585Zm-4.415.087a3.137,3.137,0,0,1-4.286-2.255A3.152,3.152,0,0,1,91.343,10.672Zm-1.361,2.72A3.137,3.137,0,0,1,85.7,11.138,3.152,3.152,0,0,1,89.982,13.393ZM94.014,17.3A2.683,2.683,0,0,1,90.5,15.263,2.622,2.622,0,0,1,94.014,17.3Zm-1.678,1.8a3.137,3.137,0,0,1-4.286-2.255A3.152,3.152,0,0,1,92.336,19.1Zm-3.38.829a2.633,2.633,0,0,1-4.071-1.305C86.53,17.822,88.4,18.25,88.956,19.932Zm-1.425,1.553a2.536,2.536,0,0,1-3.872.368A2.34,2.34,0,0,1,87.531,21.485ZM99.86,10.751a2.477,2.477,0,0,1-3.4-2.219C97.889,7.642,99.5,8.976,99.86,10.751Zm-6.283,3.637a2.477,2.477,0,0,1-3.4-2.219C91.606,11.281,93.218,12.613,93.577,14.387Zm-.124,8.055a3.137,3.137,0,0,1-4.286-2.255A3.152,3.152,0,0,1,93.453,22.442Zm-14.51,8.448a3.137,3.137,0,0,1-4.286-2.255A3.152,3.152,0,0,1,78.943,30.891ZM91.5,27.415A2.1,2.1,0,0,1,93.1,24.407,2.2,2.2,0,0,1,91.5,27.415ZM106.545,8.433a2.272,2.272,0,0,1,2.838-2.271A2.466,2.466,0,0,1,106.545,8.433ZM96.215,28.1a2.273,2.273,0,0,1,2.838-2.271A2.466,2.466,0,0,1,96.215,28.1Zm-2.641,2.373a2.638,2.638,0,0,1-3.3,2.2A2.42,2.42,0,0,1,93.573,30.477Zm-4.452,6.58A2.627,2.627,0,0,1,85.739,34.8,2.813,2.813,0,0,1,89.121,37.058Zm10.215-6.8a2.185,2.185,0,0,1,1.417-3.148C101.542,28.365,100.6,29.782,99.336,30.254ZM82.882,21.708a2.5,2.5,0,0,1-3.277-1.9A2.445,2.445,0,0,1,82.882,21.708Zm.124,5.579a2.5,2.5,0,0,1-3.277-1.9A2.445,2.445,0,0,1,83.006,27.288Zm-.97,1.279a2.728,2.728,0,0,1-4.231.192A2.712,2.712,0,0,1,82.036,28.566Zm2.8-2.552a2.813,2.813,0,0,1-3.3-2.886A2.813,2.813,0,0,1,84.835,26.014Zm-1.353,7.433a2.536,2.536,0,0,1-3.937-.18A2.656,2.656,0,0,1,83.482,33.446ZM83.031,29.7a2.836,2.836,0,0,1-3.965,1.982A2.842,2.842,0,0,1,83.031,29.7Zm2.648-2.106a2.156,2.156,0,0,1-3.48.875A2.361,2.361,0,0,1,85.679,27.592Zm8.467-15.159a3.188,3.188,0,0,1-2.029-4.512A3.132,3.132,0,0,1,94.146,12.433ZM85.962,33.676a3.188,3.188,0,0,1-2.029-4.512A3.132,3.132,0,0,1,85.962,33.676Zm-4.5-11.231a2.9,2.9,0,0,1-4.079.618A2.634,2.634,0,0,1,81.465,22.445Zm10.786,7.191a2.9,2.9,0,0,1-4.079.618,2.634,2.634,0,0,1,4.079-.618ZM90.557,14.811a2.536,2.536,0,0,1-3.872.368A2.34,2.34,0,0,1,90.557,14.811ZM88.739,26.465a2.534,2.534,0,0,1-3.87.368A2.338,2.338,0,0,1,88.739,26.465ZM81.726,18.9a2.843,2.843,0,0,1-3.883-2.044A2.856,2.856,0,0,1,81.726,18.9Zm6.942,6.448A2.843,2.843,0,0,1,84.785,23.3,2.856,2.856,0,0,1,88.668,25.348Zm-3.157,13.29a3.188,3.188,0,0,1-2.029-4.512C85.511,34.577,86.19,36.832,85.511,38.638Zm-2.48-.226a3.083,3.083,0,0,1-3.382-3.382A2.9,2.9,0,0,1,83.031,38.412ZM118.049,11.2a2.271,2.271,0,0,1,1.862-3.157C120.248,9.582,119.534,11.065,118.049,11.2ZM109.7,10.039a2.271,2.271,0,0,1,1.862-3.157C111.9,8.426,111.187,9.907,109.7,10.039Zm-4.712,5.7a2.271,2.271,0,0,1,1.862-3.157C107.189,14.129,106.475,15.612,104.99,15.742Zm2.664.931a2.094,2.094,0,0,0,.211-3.4A2.2,2.2,0,0,0,107.655,16.673ZM110.226,6.45a2.509,2.509,0,0,1,2.064-3.488C112.665,4.666,111.872,6.3,110.226,6.45Zm-3.1,5.579a2.509,2.509,0,0,1,2.064-3.488C109.566,10.246,108.773,11.884,107.127,12.029Zm-2.584.459a2.1,2.1,0,0,1,1.771-2.913A2.2,2.2,0,0,1,104.543,12.488ZM109.3,5.542a2.1,2.1,0,0,0-1.771-2.913A2.2,2.2,0,0,0,109.3,5.542Zm.993,9.175a2.1,2.1,0,0,0-1.771-2.913A2.2,2.2,0,0,0,110.29,14.716ZM109.717,3.85a2.425,2.425,0,0,0,.854-3.843C109.169.935,108.641,2.617,109.717,3.85Zm1.115,9.423a2.425,2.425,0,0,0,.854-3.843C110.284,10.358,109.756,12.04,110.832,13.273Zm-10.188-6.22a2.1,2.1,0,0,1,2.937,1.73A2.2,2.2,0,0,1,100.644,7.052Zm5.621,10.662a2.1,2.1,0,0,1,2.937,1.73A2.2,2.2,0,0,1,106.265,17.714ZM119.558,7.139a2.71,2.71,0,0,0-.972-4.123C117.737,4.56,118.025,6.434,119.558,7.139Zm3.378,9.346a2.71,2.71,0,0,0-.045-4.235C121.724,13.57,121.6,15.461,122.936,16.485Zm-15.344,8.651a2.1,2.1,0,0,0-.039-3.409,2.2,2.2,0,0,0,.039,3.409Zm1.779.378a2.1,2.1,0,0,0,1.167-3.2A2.2,2.2,0,0,0,109.371,25.515Zm1.5,3.843a2.1,2.1,0,0,0-1.771-2.913A2.2,2.2,0,0,0,110.867,29.358Zm9.677-17.941a2.376,2.376,0,0,1,3.447-1.39A2.38,2.38,0,0,1,120.544,11.417ZM107.4,21.254a2.377,2.377,0,0,1,3.447-1.39A2.38,2.38,0,0,1,107.4,21.254Zm1.359-4.183a2.1,2.1,0,0,1,2.607,2.195C109.911,19.364,108.663,18.483,108.761,17.071Zm9.067-2.877c-.645-1.467.443-2.855,2.189-2.977A2.278,2.278,0,0,1,117.827,14.193Zm18.884,7.65a2.273,2.273,0,0,0-3.632.161A2.469,2.469,0,0,0,136.712,21.843Zm-8.432-6.818a2.272,2.272,0,0,0-3.631.161A2.464,2.464,0,0,0,128.28,15.025Zm-2.4-6.86a2.274,2.274,0,0,0-3.632.161A2.468,2.468,0,0,0,125.883,8.165ZM118.444,16.1a2.271,2.271,0,0,0-3.631.161A2.467,2.467,0,0,0,118.444,16.1Zm.364,7.385a2.272,2.272,0,0,0-1.684-3.221A2.466,2.466,0,0,0,118.808,23.485Zm-3.537-9.133a2.229,2.229,0,0,1,2.075-3.082A2.334,2.334,0,0,1,115.271,14.352Zm-.629-.728a2.466,2.466,0,0,0-1.82-3.409C112.491,11.883,113.19,13.481,114.642,13.624Zm-.931,2.681a2.1,2.1,0,0,0-1.771-2.913A2.2,2.2,0,0,0,113.711,16.3Zm-.74,2.511a2.094,2.094,0,0,0-1.771-2.911A2.194,2.194,0,0,0,112.97,18.816Zm3.792,1.092A2.1,2.1,0,0,0,114.992,17,2.2,2.2,0,0,0,116.763,19.908Zm-.426,2.563a2.1,2.1,0,0,0-1.771-2.913A2.2,2.2,0,0,0,116.336,22.471Zm-4.282,2.77a2.836,2.836,0,0,1,2.474-3.678A2.841,2.841,0,0,1,112.054,25.241Zm4.94-14.4a2.1,2.1,0,0,0-1.771-2.913A2.2,2.2,0,0,0,116.994,10.843Zm2.644,9.671a2.1,2.1,0,0,0-1.771-2.913A2.2,2.2,0,0,0,119.638,20.514ZM120.96,9.1a2.685,2.685,0,0,0,.623-4.015A2.624,2.624,0,0,0,120.96,9.1ZM119.348,17.4a2.687,2.687,0,0,0,.623-4.017A2.626,2.626,0,0,0,119.348,17.4Zm1.128,2.338a2.686,2.686,0,0,0,1.349-3.835A2.626,2.626,0,0,0,120.476,19.742Zm1.309-.637a3.137,3.137,0,0,0,4.286-2.255A3.152,3.152,0,0,0,121.785,19.105Zm4.429-5.573a2.435,2.435,0,0,0,3.684-1.119C128.411,11.724,126.72,12.091,126.214,13.532Zm2.937,8.7a2.633,2.633,0,0,0,2.617-3.67C129.821,18.755,128.51,20.274,129.151,22.233Zm-1.506-5.107a2.535,2.535,0,0,0,3.692-1.223A2.34,2.34,0,0,0,127.645,17.126Zm-2.478,4.216a2.536,2.536,0,0,0,3.692-1.223A2.34,2.34,0,0,0,125.167,21.342ZM112.676,9.8a3.136,3.136,0,0,0,2.3-4.261A3.15,3.15,0,0,0,112.676,9.8Zm7.991,12.641a3.137,3.137,0,0,0,4.286-2.255A3.152,3.152,0,0,0,120.667,22.444Zm5.72-10.633a2.742,2.742,0,0,0,2.847-3.134A2.755,2.755,0,0,0,126.386,11.811Zm-3.562,12.438a2.743,2.743,0,0,0,3.746-1.971A2.755,2.755,0,0,0,122.824,24.249Zm1.727.943a2.093,2.093,0,0,0-3.386.377C122.321,26.461,123.846,26.423,124.551,25.192Zm-6.115,1.365a1.648,1.648,0,0,0-2.058-1.647A1.787,1.787,0,0,0,118.436,26.558Zm2.087,9.739c-.828,1.506.381,3.421,2.1,3.8A2.965,2.965,0,0,0,120.524,36.3ZM135.5,32.2a3.056,3.056,0,0,0,3.814,2.547v-.133A2.811,2.811,0,0,0,135.5,32.2ZM119.135,30.96a3.057,3.057,0,0,0,3.819,2.544A2.8,2.8,0,0,0,119.135,30.96ZM125,37.06a2.627,2.627,0,0,0,3.382-2.255A2.813,2.813,0,0,0,125,37.06ZM114.967,30.4a2.354,2.354,0,0,0-1.524-3.391C112.6,28.368,113.613,29.892,114.967,30.4Zm16.15-3.169a3.488,3.488,0,0,0,4.564-2.607,3.406,3.406,0,0,0-4.564,2.607Zm1.19,1.08a2.955,2.955,0,0,0,4.584.209A2.94,2.94,0,0,0,132.307,28.312Zm-3.018-2.3a3.078,3.078,0,0,0,3.608-3.157A3.077,3.077,0,0,0,129.289,26.008Zm1.353,7.218A3.2,3.2,0,0,0,135.6,33,3.35,3.35,0,0,0,130.642,33.226Zm.451-3.527a2.836,2.836,0,0,0,3.965,1.982A2.842,2.842,0,0,0,131.093,29.7Zm4.421-6.322a2.155,2.155,0,0,0,3.48.875A2.361,2.361,0,0,0,135.514,23.377Zm-7.067,4.216a2.155,2.155,0,0,0,3.48.875A2.361,2.361,0,0,0,128.447,27.593Zm-.285,6.084a3.188,3.188,0,0,0,2.029-4.512A3.132,3.132,0,0,0,128.162,33.677Zm-6.541-4.061a3.507,3.507,0,0,0,4.737,1.579A3.187,3.187,0,0,0,121.621,29.616Zm13.679.757a2.536,2.536,0,0,0,3.872.368A2.34,2.34,0,0,0,135.3,30.373ZM124.514,26.53a2.536,2.536,0,0,0,3.872.368A2.34,2.34,0,0,0,124.514,26.53Zm.939-1.179a2.84,2.84,0,0,0,3.881-2.044A2.854,2.854,0,0,0,125.453,25.351Zm-1.483,12.5A2.857,2.857,0,0,0,125.832,42,2.857,2.857,0,0,0,123.97,37.852Zm2.927,1.626a2.72,2.72,0,0,0,2.931,2.954A2.666,2.666,0,0,0,126.9,39.478Zm3.291.271a2.739,2.739,0,0,0,3.876,2.04A2.836,2.836,0,0,0,130.188,39.749ZM128.61,38.64a3.188,3.188,0,0,0,2.029-4.512C128.61,34.579,127.934,36.834,128.61,38.64Zm2.48-.226a3.085,3.085,0,0,0,3.382-3.382A2.9,2.9,0,0,0,131.09,38.415Zm1.353.606c.846,1.351,2.708,1.158,3.724-.192A2.308,2.308,0,0,0,132.443,39.021Z" fill="#7aad6c" fill-rule="evenodd"/></g></svg>